<svg xmlns:xlink="http://www.w3.org/1999/xlink" xmlns="http://www.w3.org/2000/svg" class="uxicon-svg-container hf-l134z5oo" height="20" width="20" role="presentation"><defs><symbol id="svg-container-link-arrow" viewBox="0 0 24 24"><path d="M21.53 11.477l-5-5a.757.757 0 00-.53-.221c-.198 0-.393.08-.532.22s-.22.334-.22.53c0 .198.082.393.222.532l3.702 3.702H3a.75.75 0 100 1.5h16.207l-3.737 3.737a.757.757 0 00-.222.531c0 .197.08.392.22.532s.334.22.531.22a.756.756 0 00.531-.222l5-5c.14-.14.22-.333.22-.53s-.08-.391-.22-.53z"></path></symbol></defs><use fill="var(--ux-1leynsm, black)" xlink:href="#svg-container-link-arrow"></use></svg>